<svg width="1000" height="1000" viewBox="0 0 1000 1000" fill="none" xmlns="http://www.w3.org/2000/svg">
<rect x="32.5" y="32.5" width="935" height="935" rx="467.5" fill="#162015"/>
<rect x="32.5" y="32.5" width="935" height="935" rx="467.5" stroke="black" stroke-width="65"/>
<path d="M217.46 593H190.26C185.78 593 183.54 590.76 183.54 586.28V500.2L163.06 511.72C161.353 512.573 159.86 512.68 158.58 512.04C157.3 511.187 156.66 509.693 156.66 507.56V485.48C156.66 481.213 158.793 478.12 163.06 476.2L183.54 464.68V374.76C183.54 370.28 185.78 368.04 190.26 368.04H217.46C221.94 368.04 224.18 370.28 224.18 374.76V441.32L244.98 429.8C246.687 428.733 248.073 428.627 249.14 429.48C250.42 430.12 251.06 431.507 251.06 433.64V455.4C251.06 459.88 249.033 463.187 244.98 465.32L224.18 476.84V586.28C224.18 590.76 221.94 593 217.46 593ZM351.305 593H322.825C305.972 593 292.958 588.52 283.785 579.56C274.612 570.6 270.025 557.693 270.025 540.84V481.96C270.025 465.107 274.612 452.2 283.785 443.24C292.958 434.28 305.972 429.8 322.825 429.8H351.305C367.945 429.8 380.852 434.387 390.025 443.56C399.412 452.52 404.105 465.32 404.105 481.96V540.84C404.105 557.48 399.412 570.387 390.025 579.56C380.852 588.52 367.945 593 351.305 593ZM328.905 558.12H345.225C352.052 558.12 356.852 556.733 359.625 553.96C362.612 551.187 364.105 546.387 364.105 539.56V483.24C364.105 476.413 362.612 471.613 359.625 468.84C356.852 466.067 352.052 464.68 345.225 464.68H328.905C322.078 464.68 317.278 466.067 314.505 468.84C311.732 471.613 310.345 476.413 310.345 483.24V539.56C310.345 546.387 311.732 551.187 314.505 553.96C317.278 556.733 322.078 558.12 328.905 558.12ZM529.478 429.8H560.518C563.078 429.8 564.784 430.547 565.638 432.04C566.491 433.533 566.171 435.453 564.678 437.8L522.118 507.88V509.16L566.598 585C567.878 587.133 567.984 589.053 566.918 590.76C565.851 592.253 563.931 593 561.158 593H533.638C530.011 593 527.344 592.573 525.638 591.72C524.144 590.867 522.544 589.053 520.838 586.28L480.198 514.92C478.278 511.507 478.278 507.987 480.198 504.36L518.598 436.2C520.944 431.933 524.571 429.8 529.478 429.8ZM469.958 593H442.758C438.278 593 436.038 590.76 436.038 586.28V374.76C436.038 370.28 438.278 368.04 442.758 368.04H469.958C474.438 368.04 476.678 370.28 476.678 374.76V586.28C476.678 590.76 474.438 593 469.958 593ZM644.255 593H636.575C619.722 593 606.708 588.52 597.535 579.56C588.362 570.6 583.775 557.693 583.775 540.84V481.96C583.775 465.107 588.362 452.2 597.535 443.24C606.708 434.28 619.722 429.8 636.575 429.8H710.495C715.188 429.8 717.535 432.04 717.535 436.52V586.28C717.535 590.76 715.188 593 710.495 593H683.615C679.135 593 676.895 590.76 676.895 586.28V575.72H675.615C673.268 581.48 669.108 585.853 663.135 588.84C657.162 591.613 650.868 593 644.255 593ZM676.895 533.48V468.52C676.895 466.173 675.615 465 673.055 465H642.975C636.148 465 631.348 466.493 628.575 469.48C625.802 472.253 624.415 477.053 624.415 483.88V538.92C624.415 545.747 625.802 550.653 628.575 553.64C631.348 556.413 636.148 557.8 642.975 557.8H654.815C669.535 557.8 676.895 549.693 676.895 533.48ZM786.52 593H759.32C754.84 593 752.6 590.76 752.6 586.28V436.52C752.6 432.04 754.84 429.8 759.32 429.8H786.52C791 429.8 793.24 432.04 793.24 436.52V447.4H794.52C796.867 441.64 801.027 437.267 807 434.28C812.973 431.293 819.267 429.8 825.88 429.8H837.4C841.667 429.8 843.8 432.04 843.8 436.52V458.6C843.8 461.16 843.267 462.973 842.2 464.04C841.347 464.893 839.747 465.213 837.4 465H815.32C800.6 465 793.24 473.32 793.24 489.96V586.28C793.24 590.76 791 593 786.52 593Z" fill="#A9FF8E"/>
</svg>
